# xmcd
#
# Track frame offsets:
#	150
#	17304
#	27884
#	46558
#	64864
#	82541
#	104949
#	124363
#	140304
#	159253
#	179890
#	197292
#	218446
#	237409
#	256519
#	270662
#	288339
#	307753
#	326702
#	359106
#
# Disc length: 4794 seconds
#
# Revision: 1
# Processed by: cddbd v1.5.2PL0 Copyright (c) Steve Scherf et al.
# Submitted via: audiograbber 1.83.01
#
DISCID=1112b814
DTITLE=Top Tunes - TT198
DYEAR=1900
DGENRE=Country
TTITLE0=Faith Hill - Cry
TTITLE1=Faith Hill - Star Spangled Banner
TTITLE2=Faith Hill - When The Lights Go Down
TTITLE3=Shania Twain - Any Man Of Mine
TTITLE4=Shania Twain - C'est La Vie
TTITLE5=Shania Twain - Forever And For Always
TTITLE6=Shania Twain - I'm Jealous
TTITLE7=Shania Twain - It Only Hurts When I'm Breathing
TTITLE8=Shania Twain - Juanita (Rock Version)
TTITLE9=Shania Twain - Nah!
TTITLE10=Shania Twain - The Heart Is Blind
TTITLE11=Shania Twain - Wanna Get To Know You - That Good!
TTITLE12=Shania Twain - When You Kiss Me
TTITLE13=Shania Twain - I'm Gonna Getcha Good
TTITLE14=Shania Twain - Up!
TTITLE15=Shania Twain - C'est La Vie (w/vocal)
TTITLE16=Shania Twain - I'm Jealous (w/vocal)
TTITLE17=Shania Twain - Juanita (Rock Version) (w/vocal)
TTITLE18=Shania Twain - Wanna Get To Know You - That Good! (w/vocal)
TTITLE19=Data Track
EXTD=
EXTT0=
EXTT1=
EXTT2=
EXTT3=
EXTT4=
EXTT5=
EXTT6=
EXTT7=
EXTT8=
EXTT9=
EXTT10=
EXTT11=
EXTT12=
EXTT13=
EXTT14=
EXTT15=
EXTT16=
EXTT17=
EXTT18=
EXTT19=
PLAYORDER=
